:SAMPLES-PER-SECOND 30
:FRAME-RANGE 1-2045
:FULLY-SPECIFIED
:DEGREES
767
root  6.70984 32.8065 75.0415 -176.733 -10.9385 175.251
RightUpLeg  -25.4933 -10.2702 -28.8444
RightLeg  55.842 -8.32025 -13.3459
RightFoot  -17.5044 1.02766 21.0909
RightToes  5.82063e-011 0 -3.6325e-017
Spine  20.8782 0.391715 2.2178
Spine1  -1.13184 2.00458 -6.80608
HEad  -3.43049 -17.2751 2.93246
LeftShoulder1  0.927193 0.644508 -26.2569
LeftArm  -3.65098 8.7895 -33.3377
LeftForeArm  10.7857 -72.9906 -41.5133
LeftHand  -0.707723 9.7341 -16.5233
RightShoulder  3.69199 4.88571 38.0474
RightArm  2.39446 -6.86173 10.3385
RightForeArm  12.5118 76.3193 61.0532
RightHand  0.0525163 -4.72037 15.8168
LeftUpLeg  -20.8499 16.9009 25.3562
LeftLeg  36.6397 -9.02981 -6.79222
LeftFoot  -13.2764 -0.439726 -30.0406
LeftToes  -3.90176e-010 -2.48536e-010 1.05482e-011
768
root  9.19915 32.8831 74.505 -176.183 -10.2482 175.155
RightUpLeg  -27.3253 -9.07368 -24.6641
RightLeg  59.1445 -7.53682 -13.8212
RightFoot  -22.1294 2.4805 27.3843
RightToes  5.82063e-011 0 -3.6325e-017
Spine  19.8039 -0.658503 0.242185
Spine1  -1.81526 0.341239 -5.89507
HEad  -1.61911 -13.0364 1.35197
LeftShoulder1  1.04853 0.359904 -27.2158
LeftArm  0.700774 8.91168 -33.8225
LeftForeArm  9.46493 -72.1976 -38.9955
LeftHand  -0.728923 9.84866 -16.6131
RightShoulder  2.65251 2.80943 36.1405
RightArm  5.00689 -8.37452 9.62794
RightForeArm  8.16466 75.7121 56.8255
RightHand  0.0325884 -4.87997 16.7102
LeftUpLeg  -16.275 13.2156 28.3765
LeftLeg  26.9604 -5.77951 -2.85088
LeftFoot  -9.83703 0.379396 -24.1217
LeftToes  -3.90176e-010 -2.48536e-010 1.05482e-011
769
root  11.5404 33.1728 74.0347 -175.659 -9.43413 174.169
RightUpLeg  -28.9823 -9.98769 -21.0798
RightLeg  61.3749 -6.91797 -13.9821
RightFoot  -25.3432 2.955 25.1037
RightToes  5.82063e-011 0 -3.6325e-017
Spine  20.212 -2.10523 -3.57668
Spine1  -3.48683 -2.1728 -4.1627
HEad  -1.31991 -7.57849 -0.110191
LeftShoulder1  1.28691 -0.227464 -28.3935
LeftArm  4.70918 8.20578 -35.8511
LeftForeArm  5.27493 -70.1437 -33.9843
LeftHand  -0.669343 9.47708 -16.5461
RightShoulder  1.6578 0.725808 33.4159
RightArm  7.76143 -9.20801 8.53511
RightForeArm  5.04845 75.2594 54.2403
RightHand  0.0585123 -4.7212 17.0354
LeftUpLeg  -11.9149 2.77038 28.9003
LeftLeg  19.0456 3.07722 1.51235
LeftFoot  -13.176 -0.146119 -13.9781
LeftToes  -3.90176e-010 -2.48536e-010 1.05482e-011
770
root  13.5878 33.6085 73.7526 -175.076 -8.1631 174.604
RightUpLeg  -30.2683 -9.64048 -16.0945
RightLeg  61.4024 -7.49255 -15.0624
RightFoot  -26.9598 2.97938 22.7941
RightToes  5.82063e-011 0 -3.6325e-017
Spine  21.2677 -3.7851 -6.37229
Spine1  -4.78003 -4.85796 -1.24775
HEad  -3.73513 -1.00919 -0.967125
LeftShoulder1  1.58867 -1.09922 -28.4286
LeftArm  8.4858 4.87681 -40.9622
LeftForeArm  -0.853006 -66.269 -27.4087
LeftHand  -0.607958 9.28452 -15.6606
RightShoulder  1.0645 -0.520595 29.9465
RightArm  8.54514 -9.23979 7.29718
RightForeArm  -0.0644662 74.49 50.5635
RightHand  0.0336772 -4.89863 17.8577
LeftUpLeg  -11.3702 3.88825 28.0753
LeftLeg  19.556 5.52869 2.50789
LeftFoot  -14.1109 0.0649083 -0.816297
LeftToes  -3.90176e-010 -2.48536e-010 1.05482e-011
771
root  15.4141 34.1367 73.4802 -174.261 -8.15321 175.682
RightUpLeg  -30.564 -10.9996 -10.7456
RightLeg  59.7543 -8.21231 -15.3247
RightFoot  -27.751 2.5669 18.9626
RightToes  5.82063e-011 0 -3.6325e-017
Spine  20.7808 -4.96797 -9.82058
Spine1  -2.49493 -7.58923 4.52575
HEad  -7.41916 4.56887 -1.31128
LeftShoulder1  1.90293 -2.48206 -25.63
LeftArm  13.1271 -2.55111 -50.016
LeftForeArm  -5.78972 -60.5392 -21.0458
LeftHand  -0.602835 9.48001 -14.7755
RightShoulder  0.38447 -2.28576 26.0855
RightArm  7.33408 -8.30379 6.57146
RightForeArm  -9.4036 72.6601 43.7345
RightHand  -0.0555931 -5.43121 19.5317
LeftUpLeg  -13.8264 12.8039 26.4309
LeftLeg  25.693 -0.163567 0.252629
LeftFoot  -14.0521 -0.0599848 -6.08699
LeftToes  -3.90176e-010 -2.48536e-010 1.05482e-011
772
root  17.1724 34.7975 73.1864 -173.364 -8.95898 176.446
RightUpLeg  -29.8223 -13.4578 -6.03486
RightLeg  56.3487 -8.99799 -14.6238
RightFoot  -28.0441 2.14326 15.8156
RightToes  5.82063e-011 0 -3.6325e-017
Spine  21.1618 -5.90012 -12.9647
Spine1  -2.07391 -9.98855 9.05787
HEad  -7.85396 9.00863 -1.91861
LeftShoulder1  2.08105 -4.10978 -20.9411
LeftArm  19.7649 -10.413 -60.7591
LeftForeArm  -11.1964 -53.0945 -15.9097
LeftHand  -0.572374 9.52518 -13.8137
RightShoulder  -0.609246 -5.5555 22.9315
RightArm  8.01902 -8.24736 5.77487
RightForeArm  -16.4671 71.2163 39.7523
RightHand  -0.146259 -5.89809 20.8331
LeftUpLeg  -17.9686 20.0395 22.4993
LeftLeg  33.6911 -2.92321 -1.74082
LeftFoot  -14.4192 -0.241396 -12.1535
LeftToes  -3.90176e-010 -2.48536e-010 1.05482e-011
773
root  18.9681 35.6621 72.8008 -171.872 -9.83685 177.39
RightUpLeg  -28.8306 -17.9979 -0.906538
RightLeg  50.5233 -8.68796 -11.4808
RightFoot  -27.3237 1.47594 11.8039
RightToes  5.82063e-011 0 -3.6325e-017
Spine  20.8694 -6.88126 -16.0496
Spine1  -2.28354 -12.2114 12.8331
HEad  -6.4567 13.7611 -2.60357
LeftShoulder1  2.13863 -5.13412 -18.1797
LeftArm  27.2847 -17.6121 -68.1948
LeftForeArm  -16.5236 -47.1199 -13.1503
LeftHand  -0.55014 9.31074 -13.9593
RightShoulder  -1.3766 -8.61962 20.175
RightArm  9.27109 -8.05729 5.93858
RightForeArm  -21.9329 69.5489 35.8782
RightHand  -0.155229 -5.90936 22.0271
LeftUpLeg  -22.499 25.2995 17.0555
LeftLeg  38.3747 -4.34197 -3.30891
LeftFoot  -14.7834 -0.388504 -15.778
LeftToes  -3.90176e-010 -2.48536e-010 1.05482e-011
774
root  20.7581 36.6411 72.404 -170.641 -9.92264 178.688
RightUpLeg  -28.2991 -23.3626 4.32905
RightLeg  45.0787 -5.78882 -6.49699
RightFoot  -23.4213 0.834616 9.37478
RightToes  5.82063e-011 0 -3.6325e-017
Spine  20.4329 -7.36526 -18.0329
Spine1  -1.93364 -13.4287 14.647
HEad  -4.97116 17.1679 -1.36576
LeftShoulder1  2.08944 -5.64352 -16.1005
LeftArm  34.1528 -23.3399 -74.3396
LeftForeArm  -19.6816 -41.4454 -11.0204
LeftHand  -0.399271 8.24924 -13.4495
RightShoulder  -1.81033 -10.2781 19.9746
RightArm  8.36954 -8.52418 5.80346
RightForeArm  -25.7975 67.7658 32.4311
RightHand  -0.0208492 -5.24264 22.595
LeftUpLeg  -25.8124 27.1055 11.61
LeftLeg  38.3185 -6.02706 -4.71886
LeftFoot  -15.5587 -0.571156 -17.9016
LeftToes  -3.90176e-010 -2.48536e-010 1.05482e-011
775
root  22.5044 37.5089 72.098 -169.892 -8.31502 179.543
RightUpLeg  -29.2636 -26.8543 8.17884
RightLeg  43.4899 -0.710426 -1.02562
RightFoot  -16.2727 0.288106 9.24123
RightToes  5.82063e-011 0 -3.6325e-017
Spine  20.7251 -6.64652 -19.9777
Spine1  -2.47232 -13.1045 15.3189
HEad  -3.53183 19.3702 -0.383751
LeftShoulder1  2.10802 -6.08135 -15.1734
LeftArm  39.7684 -26.9179 -77.9182
LeftForeArm  -22.9081 -37.9665 -9.97879
LeftHand  -0.282132 7.37506 -13.0086
RightShoulder  -2.29391 -11.6083 21.6248
RightArm  6.10128 -8.86166 5.38289
RightForeArm  -26.7334 66.9326 30.9935
RightHand  0.123962 -4.55608 23.0832
LeftUpLeg  -27.8809 25.0719 6.97025
LeftLeg  36.2575 -8.54657 -6.32039
LeftFoot  -17.3065 -0.898421 -19.0656
LeftToes  -3.90176e-010 -2.48536e-010 1.05482e-011
776
root  24.0664 38.0396 71.8061 -169.667 -5.36555 -179.271
RightUpLeg  -31.4171 -28.9264 10.2919
RightLeg  46.493 6.39902 6.8602
RightFoot  -6.41262 -0.579725 12.4068
RightToes  5.82063e-011 0 -3.6325e-017
Spine  20.9356 -5.93545 -20.4527
Spine1  -3.22287 -12.332 15.2536
HEad  -2.05773 21.977 -0.178628
LeftShoulder1  2.13928 -6.2018 -15.2273
LeftArm  40.3387 -28.7632 -78.1629
LeftForeArm  -23.742 -36.2984 -9.48636
LeftHand  -0.206509 6.7123 -13.3337
RightShoulder  -2.57723 -12.1079 23.3405
RightArm  4.13493 -8.84151 5.00008
RightForeArm  -24.2581 68.4361 33.6344
RightHand  0.0988389 -4.65464 22.32
LeftUpLeg  -29.7942 22.6261 4.03738
LeftLeg  35.4637 -11.0766 -8.01858
LeftFoot  -19.442 -1.27786 -19.5146
LeftToes  -3.90176e-010 -2.48536e-010 1.05482e-011
777
root  25.5694 38.0666 71.4116 -170.408 -1.83493 -178.295
RightUpLeg  -30.8341 -26.7317 7.24272
RightLeg  50.7739 13.8619 17.1942
RightFoot  -1.21488 -2.41228 26.6738
RightToes  5.82063e-011 0 -3.6325e-017
Spine  20.6971 -5.45308 -20.6408
Spine1  -3.3997 -11.4049 14.304
HEad  -0.931944 24.9257 -1.17091
LeftShoulder1  2.08005 -6.10692 -14.7906
LeftArm  37.6614 -29.181 -76.8946
LeftForeArm  -22.9133 -35.6936 -9.26303
LeftHand  -0.106235 5.86129 -14.1885
RightShoulder  -2.61961 -11.9843 24.315
RightArm  2.57466 -8.49165 4.73769
RightForeArm  -19.9575 70.4406 37.9188
RightHand  0.0475418 -4.892 21.487
LeftUpLeg  -30.5568 22.1476 2.47647
LeftLeg  35.8901 -13.9498 -10.2678
LeftFoot  -21.235 -1.82907 -22.3369
LeftToes  -3.90176e-010 -2.48536e-010 1.05482e-011
